<?xml version="1.0" standalone="no"?><svg xmlns="http://www.w3.org/2000/svg" viewBox="0 0 1440 320"><path fill="#ffffff" fill-opacity="1" d="M0,0L0,64L37.9,64L37.9,64L75.8,64L75.8,96L113.7,96L113.7,64L151.6,64L151.6,256L189.5,256L189.5,64L227.4,64L227.4,192L265.3,192L265.3,32L303.2,32L303.2,320L341.1,320L341.1,128L378.9,128L378.9,192L416.8,192L416.8,192L454.7,192L454.7,192L492.6,192L492.6,320L530.5,320L530.5,160L568.4,160L568.4,224L606.3,224L606.3,96L644.2,96L644.2,192L682.1,192L682.1,160L720,160L720,288L757.9,288L757.9,160L795.8,160L795.8,256L833.7,256L833.7,224L871.6,224L871.6,32L909.5,32L909.5,160L947.4,160L947.4,256L985.3,256L985.3,96L1023.2,96L1023.2,0L1061.1,0L1061.1,288L1098.9,288L1098.9,96L1136.8,96L1136.8,256L1174.7,256L1174.7,160L1212.6,160L1212.6,256L1250.5,256L1250.5,288L1288.4,288L1288.4,288L1326.3,288L1326.3,256L1364.2,256L1364.2,224L1402.1,224L1402.1,96L1440,96L1440,320L1402.1,320L1402.1,320L1364.2,320L1364.2,320L1326.3,320L1326.3,320L1288.4,320L1288.4,320L1250.5,320L1250.5,320L1212.6,320L1212.6,320L1174.7,320L1174.7,320L1136.8,320L1136.8,320L1098.9,320L1098.9,320L1061.1,320L1061.1,320L1023.2,320L1023.2,320L985.3,320L985.3,320L947.4,320L947.4,320L909.5,320L909.5,320L871.6,320L871.6,320L833.7,320L833.7,320L795.8,320L795.8,320L757.9,320L757.9,320L720,320L720,320L682.1,320L682.1,320L644.2,320L644.2,320L606.3,320L606.3,320L568.4,320L568.4,320L530.5,320L530.5,320L492.6,320L492.6,320L454.7,320L454.7,320L416.8,320L416.8,320L378.9,320L378.9,320L341.1,320L341.1,320L303.2,320L303.2,320L265.3,320L265.3,320L227.4,320L227.4,320L189.5,320L189.5,320L151.6,320L151.6,320L113.7,320L113.7,320L75.8,320L75.8,320L37.9,320L37.9,320L0,320L0,320Z"></path></svg>