<?xml version="1.0" standalone="no"?><svg xmlns="http://www.w3.org/2000/svg" viewBox="0 0 1440 320"><path fill="#ffffff" fill-opacity="0.77" d="M0,288L0,64L37.9,64L37.9,288L75.8,288L75.8,128L113.7,128L113.7,320L151.6,320L151.6,256L189.5,256L189.5,256L227.4,256L227.4,320L265.3,320L265.3,192L303.2,192L303.2,288L341.1,288L341.1,192L378.9,192L378.9,128L416.8,128L416.8,256L454.7,256L454.7,288L492.6,288L492.6,64L530.5,64L530.5,160L568.4,160L568.4,128L606.3,128L606.3,192L644.2,192L644.2,288L682.1,288L682.1,128L720,128L720,192L757.9,192L757.9,32L795.8,32L795.8,96L833.7,96L833.7,32L871.6,32L871.6,96L909.5,96L909.5,192L947.4,192L947.4,128L985.3,128L985.3,64L1023.2,64L1023.2,160L1061.1,160L1061.1,288L1098.9,288L1098.9,160L1136.8,160L1136.8,64L1174.7,64L1174.7,320L1212.6,320L1212.6,96L1250.5,96L1250.5,160L1288.4,160L1288.4,128L1326.3,128L1326.3,192L1364.2,192L1364.2,320L1402.1,320L1402.1,256L1440,256L1440,320L1402.1,320L1402.1,320L1364.2,320L1364.2,320L1326.3,320L1326.3,320L1288.4,320L1288.4,320L1250.5,320L1250.5,320L1212.6,320L1212.6,320L1174.7,320L1174.7,320L1136.8,320L1136.8,320L1098.9,320L1098.9,320L1061.1,320L1061.1,320L1023.2,320L1023.2,320L985.3,320L985.3,320L947.4,320L947.4,320L909.5,320L909.5,320L871.6,320L871.6,320L833.7,320L833.7,320L795.8,320L795.8,320L757.9,320L757.9,320L720,320L720,320L682.1,320L682.1,320L644.2,320L644.2,320L606.3,320L606.3,320L568.4,320L568.4,320L530.5,320L530.5,320L492.6,320L492.6,320L454.7,320L454.7,320L416.8,320L416.8,320L378.9,320L378.9,320L341.1,320L341.1,320L303.2,320L303.2,320L265.3,320L265.3,320L227.4,320L227.4,320L189.5,320L189.5,320L151.6,320L151.6,320L113.7,320L113.7,320L75.8,320L75.8,320L37.9,320L37.9,320L0,320L0,320Z"></path></svg>