<?xml version="1.0" standalone="no"?><svg xmlns="http://www.w3.org/2000/svg" viewBox="0 0 1440 320"><path fill="#ffffff" fill-opacity="1" d="M0,288L30,261.3C60,235,120,181,180,176C240,171,300,213,360,240C420,267,480,277,540,245.3C600,213,660,139,720,144C780,149,840,235,900,229.3C960,224,1020,128,1080,128C1140,128,1200,224,1260,266.7C1320,309,1380,299,1410,293.3L1440,288L1440,320L1410,320C1380,320,1320,320,1260,320C1200,320,1140,320,1080,320C1020,320,960,320,900,320C840,320,780,320,720,320C660,320,600,320,540,320C480,320,420,320,360,320C300,320,240,320,180,320C120,320,60,320,30,320L0,320Z"></path></svg>