<?xml version="1.0" standalone="no"?><svg xmlns="http://www.w3.org/2000/svg" viewBox="0 0 1440 320"><path fill="#ffffff" fill-opacity="1" d="M0,96L6.2,117.3C12.3,139,25,181,37,197.3C49.2,213,62,203,74,186.7C86.2,171,98,149,111,160C123.1,171,135,213,148,218.7C160,224,172,192,185,192C196.9,192,209,224,222,245.3C233.8,267,246,277,258,240C270.8,203,283,117,295,106.7C307.7,96,320,160,332,202.7C344.6,245,357,267,369,229.3C381.5,192,394,96,406,85.3C418.5,75,431,149,443,192C455.4,235,468,245,480,234.7C492.3,224,505,192,517,192C529.2,192,542,224,554,234.7C566.2,245,578,235,591,218.7C603.1,203,615,181,628,160C640,139,652,117,665,122.7C676.9,128,689,160,702,181.3C713.8,203,726,213,738,229.3C750.8,245,763,267,775,240C787.7,213,800,139,812,112C824.6,85,837,107,849,128C861.5,149,874,171,886,160C898.5,149,911,107,923,106.7C935.4,107,948,149,960,154.7C972.3,160,985,128,997,122.7C1009.2,117,1022,139,1034,176C1046.2,213,1058,267,1071,282.7C1083.1,299,1095,277,1108,266.7C1120,256,1132,256,1145,229.3C1156.9,203,1169,149,1182,138.7C1193.8,128,1206,160,1218,170.7C1230.8,181,1243,171,1255,181.3C1267.7,192,1280,224,1292,234.7C1304.6,245,1317,235,1329,229.3C1341.5,224,1354,224,1366,202.7C1378.5,181,1391,139,1403,133.3C1415.4,128,1428,160,1434,176L1440,192L1440,320L1433.8,320C1427.7,320,1415,320,1403,320C1390.8,320,1378,320,1366,320C1353.8,320,1342,320,1329,320C1316.9,320,1305,320,1292,320C1280,320,1268,320,1255,320C1243.1,320,1231,320,1218,320C1206.2,320,1194,320,1182,320C1169.2,320,1157,320,1145,320C1132.3,320,1120,320,1108,320C1095.4,320,1083,320,1071,320C1058.5,320,1046,320,1034,320C1021.5,320,1009,320,997,320C984.6,320,972,320,960,320C947.7,320,935,320,923,320C910.8,320,898,320,886,320C873.8,320,862,320,849,320C836.9,320,825,320,812,320C800,320,788,320,775,320C763.1,320,751,320,738,320C726.2,320,714,320,702,320C689.2,320,677,320,665,320C652.3,320,640,320,628,320C615.4,320,603,320,591,320C578.5,320,566,320,554,320C541.5,320,529,320,517,320C504.6,320,492,320,480,320C467.7,320,455,320,443,320C430.8,320,418,320,406,320C393.8,320,382,320,369,320C356.9,320,345,320,332,320C320,320,308,320,295,320C283.1,320,271,320,258,320C246.2,320,234,320,222,320C209.2,320,197,320,185,320C172.3,320,160,320,148,320C135.4,320,123,320,111,320C98.5,320,86,320,74,320C61.5,320,49,320,37,320C24.6,320,12,320,6,320L0,320Z"></path></svg>